# xmcd
#
# Track frame offsets:
#	150
#	19595
#	34048
#	74113
#	83823
#	89823
#	106550
#	111208
#	119928
#	130380
#	156858
#	167653
#	189640
#	203243
#
# Disc length: 2954 seconds
#
# Revision: 0
# Processed by: cddbd v1.5.2PL0 Copyright (c) Steve Scherf et al.
# Submitted via: EasyCDDAExtractor 16.0.6.1
#
DISCID=c80b880e
DTITLE=James Brown - Gold
DYEAR=1993
DGENRE=Blues
TTITLE0=Sexmachine
TTITLE1=I Feel Good (I Got You)
TTITLE2=It's a Man's, Man's World
TTITLE3=Papa's Got a Brand New Bag
TTITLE4=Hot Pants
TTITLE5=Gonna Have a Funky Good Time
TTITLE6=Cold Sweat
TTITLE7=(Give it Up) Turn It Loose
TTITLE8=Get Up Offa That Thing
TTITLE9=Georgia On My Mind
TTITLE10=I Got the Feeling
TTITLE11=It's too Funky in Here
TTITLE12=Get On the Good Foot
TTITLE13=Bring it On
EXTD=
EXTT0=
EXTT1=
EXTT2=
EXTT3=
EXTT4=
EXTT5=
EXTT6=
EXTT7=
EXTT8=
EXTT9=
EXTT10=
EXTT11=
EXTT12=
EXTT13=
PLAYORDER=
